<svg xmlns="http://www.w3.org/2000/svg" width="103.143" height="114" viewBox="0 0 103.143 114">
  <g id="icons8_c_sharp_logo" transform="translate(-5 -3)">
    <path id="路径_1" data-name="路径 1" d="M53.594,3.776a6.1,6.1,0,0,1,5.952,0c9.106,5.111,36.51,20.5,45.619,25.607a5.753,5.753,0,0,1,2.978,5.011V85.6a5.76,5.76,0,0,1-2.978,5.013c-9.106,5.111-36.51,20.5-45.619,25.607a6.1,6.1,0,0,1-5.952,0c-9.106-5.111-36.51-20.5-45.619-25.607A5.759,5.759,0,0,1,5,85.606V34.4a5.76,5.76,0,0,1,2.978-5.013Z" transform="translate(0 0.001)" fill="#37474f" fill-rule="evenodd"/>
    <path id="路径_2" data-name="路径 2" d="M5.825,88.24A4.667,4.667,0,0,1,5,85.121V34.2A5.72,5.72,0,0,1,7.969,29.22C17.043,24.139,44.354,8.844,53.428,3.76a6.542,6.542,0,0,1,6.164.022c9.074,5.081,36.293,20.246,45.367,25.327a5.68,5.68,0,0,1,1.791,1.563Z" transform="translate(0 0)" fill="#546e7a" fill-rule="evenodd"/>
    <path id="路径_3" data-name="路径 3" d="M48,10A38,38,0,1,1,10,48,38.017,38.017,0,0,1,48,10Zm0,19A19,19,0,1,1,29,48,19.009,19.009,0,0,1,48,29Z" transform="translate(8.571 12)" fill="#fff" fill-rule="evenodd"/>
    <path id="路径_4" data-name="路径 4" d="M74.871,13.205c1.4,1.311,1.373,3.287,1.373,4.842,0,10.3-.087,39.6.024,49.9a5.9,5.9,0,0,1-.877,3.059l-51.8-28.5Z" transform="translate(31.874 17.495)" fill="#455a64" fill-rule="evenodd"/>
    <path id="路径_5" data-name="路径 5" d="M34,20h2.714V41.714H34Zm8.143,0h2.714V41.714H42.143Z" transform="translate(49.714 29.143)" fill="#fff" fill-rule="evenodd"/>
    <path id="路径_6" data-name="路径 6" d="M32,30.143H53.714v2.714H32ZM32,22H53.714v2.714H32Z" transform="translate(46.286 32.572)" fill="#fff" fill-rule="evenodd"/>
  </g>
</svg>
